{
	"asset":{
		"generator":"Khronos glTF Blender I/O v4.2.57",
		"version":"2.0"
	},
	"scene":0,
	"scenes":[
		{
			"name":"Scene",
			"nodes":[
				0
			]
		}
	],
	"nodes":[
		{
			"mesh":0,
			"name":"Curve.009",
			"scale":[
				2,
				0.25,
				2
			]
		}
	],
	"materials":[
		{
			"doubleSided":true,
			"name":"SVGMat.002",
			"pbrMetallicRoughness":{
				"baseColorFactor":[
					0.8518306612968445,
					0.8518306612968445,
					0.8518306612968445,
					1
				],
				"metallicFactor":0,
				"roughnessFactor":0.4000000059604645
			}
		}
	],
	"meshes":[
		{
			"name":"Curve.013",
			"primitives":[
				{
					"attributes":{
						"POSITION":0,
						"NORMAL":1,
						"TEXCOORD_0":2
					},
					"indices":3,
					"material":0
				}
			]
		}
	],
	"accessors":[
		{
			"bufferView":0,
			"componentType":5126,
			"count":3062,
			"max":[
				0.055697694420814514,
				0.009999999776482582,
				-0.019490428268909454
			],
			"min":[
				0.007589110638946295,
				-0.009999999776482582,
				-0.04431077465415001
			],
			"type":"VEC3"
		},
		{
			"bufferView":1,
			"componentType":5126,
			"count":3062,
			"type":"VEC3"
		},
		{
			"bufferView":2,
			"componentType":5126,
			"count":3062,
			"type":"VEC2"
		},
		{
			"bufferView":3,
			"componentType":5123,
			"count":9000,
			"type":"SCALAR"
		}
	],
	"bufferViews":[
		{
			"buffer":0,
			"byteLength":36744,
			"byteOffset":0,
			"target":34962
		},
		{
			"buffer":0,
			"byteLength":36744,
			"byteOffset":36744,
			"target":34962
		},
		{
			"buffer":0,
			"byteLength":24496,
			"byteOffset":73488,
			"target":34962
		},
		{
			"buffer":0,
			"byteLength":18000,
			"byteOffset":97984,
			"target":34963
		}
	],
	"buffers":[
		{
			"byteLength":115984,
			"uri":"nike.bin"
		}
	]
}
